<?xml version="1.0" standalone="no"?>
<!DOCTYPE svg PUBLIC "-//W3C//DTD SVG 20010904//EN"
 "http://www.w3.org/TR/2001/REC-SVG-20010904/DTD/svg10.dtd">
<svg version="1.0" xmlns="http://www.w3.org/2000/svg"
 width="1080.000000pt" height="1080.000000pt" viewBox="0 0 1080.000000 1080.000000"
 preserveAspectRatio="xMidYMid meet">
<metadata>
Created by potrace 1.14, written by Peter Selinger 2001-2017
</metadata>
<g transform="translate(0.000000,1080.000000) scale(0.100000,-0.100000)"
fill="#000000" stroke="none">
<path d="M6738 9345 c-3 -3 -21 -7 -40 -9 -18 -1 -37 -4 -43 -7 -5 -4 -20 -5
-32 -4 -13 1 -23 -1 -23 -5 0 -4 -6 -7 -12 -8 -30 -2 -63 -13 -66 -21 -2 -6
-9 -8 -17 -5 -7 3 -16 0 -20 -5 -3 -6 -11 -9 -16 -6 -5 4 -9 2 -9 -2 0 -5 17
-17 38 -28 20 -11 44 -26 53 -35 9 -8 27 -24 40 -36 13 -11 40 -39 59 -61 19
-23 39 -39 45 -35 15 9 205 20 205 12 0 -3 12 -5 28 -4 15 0 30 -4 34 -10 6
-8 8 -8 8 1 0 8 9 9 30 3 17 -5 33 -9 35 -9 3 -1 8 -2 13 -2 4 -1 14 -1 24 0
9 1 19 -3 22 -8 4 -6 13 -8 20 -5 8 3 17 0 21 -5 3 -6 11 -9 16 -5 5 3 16 0
24 -6 8 -7 15 -10 15 -7 0 3 30 -6 68 -20 37 -14 77 -27 90 -30 12 -3 22 -9
22 -14 0 -5 3 -8 8 -7 8 3 101 -31 117 -42 6 -4 51 -29 100 -55 50 -27 93 -53
97 -59 4 -6 8 -7 8 -3 0 4 27 -10 59 -33 33 -22 65 -40 70 -40 6 0 11 -3 11
-8 0 -4 18 -18 40 -32 22 -14 40 -28 40 -32 0 -5 7 -8 15 -8 8 0 15 -5 15 -10
0 -6 8 -14 18 -17 19 -8 31 -17 67 -50 13 -13 26 -23 29 -23 6 0 42 -32 154
-135 86 -79 143 -136 222 -225 88 -99 101 -114 130 -151 14 -18 31 -38 38 -46
7 -7 11 -13 7 -13 -3 0 4 -10 15 -22 29 -31 140 -196 140 -208 0 -6 4 -10 9
-10 5 0 12 -8 15 -17 9 -24 38 -77 45 -83 14 -12 141 -281 141 -299 0 -6 5
-11 10 -11 6 0 9 -3 9 -7 -4 -23 3 -53 14 -65 6 -7 13 -18 14 -24 1 -6 5 -24
9 -40 3 -16 8 -41 11 -56 3 -16 8 -28 12 -28 3 0 7 -10 7 -22 1 -13 5 -41 9
-63 10 -53 12 -300 2 -345 -11 -52 -39 -124 -51 -132 -6 -4 -7 -8 -3 -8 26 0
-107 -145 -155 -169 -16 -8 -28 -18 -28 -23 0 -5 -4 -7 -9 -3 -5 3 -16 -1 -24
-9 -8 -8 -17 -13 -20 -10 -3 4 -12 2 -19 -2 -7 -5 -18 -9 -25 -10 -6 -1 -35
-7 -65 -13 -65 -15 -212 -13 -307 4 -39 7 -71 10 -71 7 0 -2 -6 1 -14 7 -8 6
-18 11 -22 10 -8 -2 -74 14 -112 26 -7 3 -13 4 -15 3 -1 -1 -13 5 -27 12 -14
8 -31 15 -38 16 -8 1 -21 6 -30 10 -9 4 -19 8 -22 9 -3 1 -21 8 -40 16 -19 7
-38 12 -42 11 -5 -1 -8 2 -8 6 0 5 -18 15 -40 22 -22 7 -40 16 -40 19 0 3 -15
12 -32 20 -18 8 -50 25 -70 38 -21 13 -38 20 -38 16 0 -5 -5 0 -11 10 -6 9
-14 15 -20 12 -5 -4 -9 -2 -9 3 0 5 -20 19 -45 32 -24 12 -52 30 -63 39 -21
18 -50 38 -72 48 -13 6 -48 34 -74 59 -6 6 -16 13 -22 15 -15 5 -78 56 -120
97 -19 18 -34 31 -34 28 0 -9 -251 236 -300 294 -78 90 -90 105 -90 113 0 5
-4 5 -10 2 -5 -3 -10 -1 -10 5 0 9 -49 80 -70 100 -17 16 -60 80 -60 88 0 6
-7 12 -15 16 -8 3 -15 12 -15 21 0 8 -4 15 -10 15 -5 0 -10 7 -10 15 0 8 -4
15 -10 15 -5 0 -10 7 -10 15 0 8 -4 15 -10 15 -5 0 -10 5 -10 10 0 6 -11 27
-24 48 -12 20 -23 41 -24 46 0 5 -4 12 -9 15 -4 3 -17 24 -28 46 -11 22 -22
42 -25 45 -6 6 -90 186 -90 193 0 3 -8 22 -17 43 -9 22 -16 42 -15 47 3 10
-12 9 -40 -2 -52 -21 -66 -24 -133 -26 -38 -2 -76 -4 -83 -4 -8 -1 -9 -6 -3
-18 9 -17 23 -52 25 -63 3 -14 51 -128 62 -145 6 -11 17 -37 24 -57 6 -21 16
-38 21 -38 5 0 9 -6 9 -13 0 -21 30 -77 41 -77 5 0 8 -3 7 -7 -4 -12 26 -73
34 -73 5 0 8 -7 8 -15 0 -9 9 -25 20 -37 10 -12 17 -25 14 -30 -3 -4 -1 -8 5
-8 5 0 21 -21 35 -46 20 -35 23 -50 15 -60 -9 -11 -355 -355 -375 -374 -3 -2
-8 0 -12 6 -4 5 -23 21 -42 34 -19 13 -37 27 -40 30 -3 4 -26 21 -52 38 -25
18 -54 39 -62 48 -9 8 -16 12 -16 7 0 -4 -4 -3 -8 3 -10 15 -218 151 -242 159
-11 3 -20 11 -20 16 0 6 -4 7 -10 4 -5 -3 -10 -2 -10 3 0 6 -11 13 -25 16 -14
4 -25 11 -25 17 0 6 -4 7 -10 4 -5 -3 -10 -2 -10 4 0 5 -16 15 -35 21 -19 6
-35 15 -35 20 0 4 -11 11 -25 14 -13 3 -47 19 -74 35 -27 16 -52 27 -55 24 -3
-4 -6 -1 -6 5 0 7 -5 12 -10 12 -6 0 -27 7 -48 17 -20 9 -39 17 -42 18 -3 1
-23 10 -45 20 -54 24 -88 38 -100 41 -5 1 -41 14 -80 29 -38 15 -74 28 -80 29
-21 5 -101 29 -125 37 -14 5 -34 11 -46 13 -11 2 -49 11 -85 20 -68 17 -118
26 -159 31 -14 2 -25 4 -25 5 0 2 -57 8 -125 15 -57 5 -265 6 -305 1 -84 -11
-133 -18 -165 -26 -19 -5 -46 -11 -60 -13 -14 -3 -42 -12 -63 -20 -20 -9 -37
-14 -37 -12 0 9 -206 -99 -217 -114 -7 -9 -13 -11 -13 -6 0 6 -3 6 -8 -1 -4
-5 -29 -27 -56 -47 -28 -21 -42 -37 -32 -37 9 0 16 -4 16 -8 0 -5 18 -15 40
-22 22 -7 40 -16 40 -19 0 -3 12 -12 28 -18 15 -7 42 -26 61 -42 29 -25 37
-28 55 -18 12 7 23 14 26 18 11 12 80 50 80 44 0 -3 13 3 29 14 15 11 30 18
33 15 3 -2 26 4 51 15 25 11 48 17 50 14 3 -3 12 -1 19 3 7 5 22 10 33 11 11
1 45 6 75 9 90 12 370 8 370 -5 0 -3 15 -6 32 -5 18 1 59 -5 91 -13 32 -7 63
-11 68 -7 5 3 9 1 9 -3 0 -5 8 -9 18 -10 40 -4 122 -26 122 -34 0 -5 6 -6 14
-3 8 3 28 -2 45 -11 17 -8 31 -13 31 -11 0 3 12 -1 27 -9 15 -8 30 -12 35 -9
4 3 8 1 8 -4 0 -4 23 -15 50 -22 28 -7 50 -18 50 -23 0 -6 3 -7 6 -4 4 3 16 1
28 -5 11 -7 24 -11 29 -10 4 1 7 -2 7 -6 0 -5 6 -9 13 -9 7 0 57 -21 111 -46
54 -26 102 -47 107 -47 5 0 9 -4 9 -10 0 -5 8 -10 18 -10 9 0 28 -9 42 -20 14
-11 29 -20 34 -20 11 0 129 -71 137 -83 3 -5 9 -8 13 -8 10 2 128 -73 145 -91
8 -10 20 -18 26 -18 6 0 34 -17 62 -37 28 -21 61 -45 73 -53 12 -8 28 -20 34
-26 6 -6 23 -18 38 -28 l28 -18 -28 -21 c-15 -12 -34 -31 -43 -42 -38 -46 -67
-73 -73 -68 -3 4 -6 2 -6 -3 0 -6 -9 -20 -20 -32 l-20 -21 -53 32 c-28 18 -54
35 -57 38 -3 4 -15 9 -27 13 -13 4 -23 11 -23 16 0 4 -11 11 -25 14 -14 4 -25
11 -25 16 0 6 -7 10 -16 10 -9 0 -28 8 -42 18 -31 21 -99 53 -108 52 -4 -1
-10 3 -13 8 -3 5 -15 12 -26 16 -16 4 -20 1 -21 -17 -1 -50 -18 -112 -50 -185
-15 -34 -7 -53 24 -60 7 -1 30 -13 51 -27 21 -13 42 -21 45 -18 3 4 6 1 6 -5
0 -7 6 -12 13 -12 11 0 86 -46 115 -70 6 -6 12 -8 12 -5 0 4 6 0 14 -8 13 -13
-59 -89 -564 -593 l-578 -579 -31 47 c-17 26 -31 52 -31 58 0 5 -4 10 -8 10
-5 0 -23 30 -41 68 -19 37 -40 75 -49 85 -8 9 -12 17 -8 17 3 0 -7 26 -23 59
-17 32 -27 61 -24 65 4 3 1 6 -5 6 -6 0 -14 14 -17 32 -4 18 -11 39 -15 48
-19 36 -46 117 -45 135 0 11 -3 22 -7 25 -4 3 -9 20 -12 38 -4 17 -9 47 -12
65 -4 17 -8 41 -9 53 -1 11 -4 24 -6 30 -3 5 -5 59 -4 119 1 107 17 207 38
233 5 6 7 12 3 12 -3 0 6 20 19 44 29 51 31 78 10 96 -8 7 -13 16 -10 20 2 4
-2 15 -9 26 -8 10 -12 24 -9 31 3 7 1 13 -5 13 -9 0 -20 42 -28 108 -1 13 -6
27 -9 30 -9 9 -136 -129 -129 -140 3 -4 0 -8 -5 -8 -6 0 -11 -7 -11 -15 0 -8
-4 -15 -10 -15 -5 0 -10 -6 -10 -13 0 -7 -9 -29 -19 -49 -11 -19 -17 -39 -14
-42 4 -3 0 -6 -7 -6 -7 0 -10 -3 -7 -7 4 -3 2 -12 -5 -20 -6 -7 -8 -16 -5 -20
4 -3 2 -14 -4 -25 -16 -29 -28 -138 -29 -253 -1 -113 9 -204 32 -290 5 -22 12
-51 15 -64 2 -13 9 -34 15 -45 6 -12 10 -22 9 -24 -4 -4 11 -66 18 -77 4 -5
13 -29 19 -51 7 -23 22 -64 34 -90 12 -27 23 -51 23 -54 4 -22 49 -110 56
-110 5 0 8 -3 7 -7 -2 -8 33 -84 42 -93 3 -3 12 -18 20 -35 8 -16 17 -32 20
-35 3 -3 11 -15 18 -27 6 -13 18 -33 25 -45 6 -13 14 -25 17 -28 15 -15 50
-71 50 -80 0 -5 3 -10 8 -10 4 0 18 -18 32 -40 14 -22 28 -40 33 -40 4 0 5 -4
2 -10 -3 -5 -2 -10 3 -10 5 0 24 -21 42 -47 19 -27 43 -56 54 -65 10 -10 16
-18 12 -18 -4 0 3 -11 16 -24 13 -13 48 -51 78 -86 104 -119 294 -303 381
-370 11 -8 33 -26 49 -40 15 -14 41 -34 56 -45 16 -11 36 -28 46 -37 10 -10
18 -16 18 -13 0 3 6 1 13 -5 52 -44 73 -60 80 -60 5 0 15 -6 22 -13 33 -29 45
-37 55 -37 5 0 10 -4 10 -10 0 -5 3 -9 8 -8 4 1 27 -10 52 -26 25 -15 54 -34
65 -41 11 -7 22 -12 25 -11 3 0 19 -8 35 -20 46 -31 229 -117 319 -150 53 -20
55 -20 94 -29 18 -4 35 -12 38 -16 3 -5 16 -9 30 -9 14 0 34 -4 44 -10 10 -5
36 -12 57 -16 21 -3 49 -8 63 -10 52 -11 87 -15 140 -19 30 -2 57 -4 60 -5 11
-3 137 2 165 6 17 3 37 5 45 6 18 0 129 26 150 35 8 3 18 7 23 8 4 2 9 4 12 5
3 1 8 3 13 4 4 1 23 11 43 24 20 12 40 22 45 22 5 0 22 11 38 25 16 14 32 25
35 25 12 0 131 126 131 138 0 5 8 17 18 28 10 10 24 34 31 52 7 17 18 32 24
32 6 0 7 3 4 7 -4 3 -2 11 3 18 5 6 11 20 13 31 2 10 7 26 10 34 43 103 55
395 23 540 -9 38 -15 72 -21 110 -4 19 -10 39 -16 45 -5 5 -9 18 -9 30 0 18
-47 160 -69 210 -41 91 -147 303 -158 313 -7 7 -13 20 -13 28 0 8 -4 14 -10
14 -5 0 -10 6 -10 13 0 8 -9 24 -20 37 -11 13 -20 29 -20 37 0 7 -4 13 -10 13
-5 0 -10 7 -10 15 0 8 -4 15 -10 15 -5 0 -10 9 -10 19 0 20 92 121 110 121 5
0 10 6 10 13 0 7 14 24 32 37 30 22 33 22 42 6 6 -10 18 -26 26 -36 8 -10 22
-28 30 -40 8 -13 26 -36 38 -51 13 -16 20 -29 15 -29 -4 0 -3 -4 3 -8 14 -8
105 -142 107 -157 1 -5 10 -17 20 -26 9 -9 17 -24 17 -33 0 -9 4 -16 10 -16 5
0 19 -19 30 -42 12 -24 27 -52 33 -63 24 -38 55 -100 55 -109 0 -5 4 -12 9
-15 14 -11 134 -263 140 -296 2 -10 9 -28 17 -40 12 -18 24 -56 32 -95 3 -15
23 -58 36 -76 6 -8 20 -8 51 3 47 17 121 29 186 32 17 1 21 4 14 14 -6 6 -20
39 -31 72 -34 97 -60 168 -73 200 -7 17 -13 32 -14 35 -1 3 -10 23 -20 45 -10
22 -17 43 -17 48 1 4 -3 7 -8 7 -6 0 -10 6 -10 13 0 7 -18 47 -39 90 -22 42
-37 77 -34 77 4 0 -2 7 -13 15 -10 8 -15 15 -10 15 5 0 1 9 -9 20 -10 11 -14
20 -9 20 5 0 5 4 -1 8 -12 8 -52 76 -68 115 -6 15 -15 27 -19 27 -4 0 -8 7 -8
15 0 8 -4 15 -10 15 -5 0 -10 7 -10 15 0 8 -5 15 -12 15 -6 0 -9 3 -5 6 3 3 2
11 -4 18 -27 32 -139 207 -139 216 0 6 -4 9 -8 6 -5 -3 -15 7 -23 22 -8 15
-24 38 -36 52 -13 14 -23 28 -23 31 0 3 -11 19 -25 35 l-25 29 44 43 c25 23
42 42 38 42 -4 0 6 9 21 19 16 10 28 21 28 25 -1 3 2 6 5 5 4 0 10 5 15 12 4
8 58 64 120 126 102 103 139 130 139 103 0 -5 7 -10 15 -10 8 0 15 -4 15 -10
0 -5 7 -10 15 -10 8 0 15 -4 15 -10 0 -5 5 -10 10 -10 12 0 92 -50 101 -63 3
-5 9 -8 13 -8 9 1 40 -12 46 -18 5 -6 141 -75 150 -76 3 -1 28 -12 55 -25 28
-13 52 -24 55 -25 3 0 32 -11 65 -23 72 -27 83 -31 93 -33 4 -1 23 -7 42 -15
36 -14 71 -22 128 -31 17 -3 32 -8 32 -12 0 -3 10 -7 23 -7 12 -1 54 -5 92 -9
90 -9 259 -10 310 -1 67 11 78 14 135 31 64 20 200 86 200 97 0 4 6 8 13 8 7
0 18 9 25 20 7 11 19 20 27 20 8 0 15 3 15 8 0 4 15 23 33 42 41 44 110 140
100 140 -5 0 -3 4 2 8 17 12 59 115 70 172 2 8 4 15 5 15 2 0 6 20 16 75 10
61 11 223 2 285 -4 28 -8 66 -10 85 -1 19 -6 41 -11 48 -5 6 -7 12 -4 12 3 0
1 17 -4 38 -6 20 -12 51 -15 67 -3 17 -11 36 -16 43 -6 6 -8 12 -4 12 3 0 0
16 -8 35 -8 19 -12 35 -9 35 3 0 0 7 -7 15 -7 8 -9 15 -5 15 4 0 3 6 -3 13 -6
6 -11 17 -12 22 -1 6 -6 20 -11 33 -5 13 -9 25 -9 28 0 17 -129 277 -142 285
-5 3 -10 12 -12 20 -6 32 -202 329 -217 329 -6 0 -8 4 -4 9 3 6 -1 13 -8 18
-7 4 -24 24 -37 43 -14 19 -32 42 -40 50 -8 9 -33 38 -55 65 -85 102 -285 305
-389 395 -27 23 -55 47 -62 53 -19 17 -29 25 -116 90 -42 31 -85 65 -94 75
-10 9 -20 16 -23 16 -3 -1 -32 16 -63 37 -31 22 -62 39 -67 39 -6 0 -11 4 -11
8 0 4 -19 18 -42 30 -24 13 -52 28 -63 35 -27 17 -89 51 -95 52 -3 1 -48 22
-100 47 -101 49 -318 126 -363 130 -15 1 -27 6 -27 11 0 5 -9 7 -20 4 -11 -3
-20 -1 -20 3 0 5 -8 7 -17 5 -10 -1 -22 0 -28 4 -5 3 -21 7 -35 8 -14 1 -41 4
-60 8 -55 10 -254 18 -262 10z m-268 -3850 c0 -7 7 -18 16 -23 9 -5 15 -11 13
-13 -2 -2 16 -35 38 -74 23 -38 49 -88 59 -110 11 -22 22 -42 25 -45 8 -7 22
-44 21 -52 -1 -5 3 -8 10 -8 6 0 9 -3 5 -6 -3 -3 2 -20 12 -37 37 -66 119
-331 112 -364 -1 -7 2 -13 6 -13 5 0 8 -15 8 -32 -1 -18 1 -37 4 -43 10 -17 9
-199 -2 -219 -6 -13 -6 -16 3 -11 9 5 9 1 -1 -16 -7 -13 -11 -25 -10 -27 7 -7
-14 -75 -42 -132 -36 -73 -120 -164 -182 -195 -22 -11 -42 -22 -45 -25 -5 -5
-15 -8 -50 -15 -8 -2 -16 -4 -17 -4 -6 -2 -21 -5 -68 -16 -82 -19 -318 -5
-395 22 -21 8 -41 12 -70 15 -14 2 -27 5 -30 8 -3 3 -30 14 -60 24 -30 11 -66
24 -80 29 -14 6 -27 11 -30 12 -3 1 -18 8 -35 15 -16 7 -32 14 -35 15 -22 5
-240 121 -240 127 0 4 -4 8 -9 8 -5 0 -32 14 -59 31 l-49 30 39 40 c21 21 43
39 48 39 6 0 10 5 10 10 0 11 180 192 180 181 1 -3 8 6 16 22 8 15 21 27 29
27 8 0 15 5 15 11 0 14 26 39 41 39 7 0 10 3 7 6 -8 7 88 104 102 104 5 0 10
5 10 10 0 13 57 70 70 70 6 0 10 5 10 10 0 14 178 189 185 182 3 -3 5 0 5 6 0
14 126 142 140 142 5 0 10 4 10 10 0 13 57 70 70 70 5 0 10 5 10 10 0 6 9 19
20 30 11 11 25 20 30 20 6 0 10 5 10 10 0 15 92 108 108 109 6 1 12 -6 12 -14z"/>
<path d="M6095 9082 c-3 -4 -16 -7 -28 -8 -31 -2 -107 -34 -107 -45 0 -5 -4
-8 -9 -6 -4 1 -26 -12 -48 -29 -40 -32 -96 -126 -108 -179 -11 -45 -13 -185
-4 -185 5 0 6 -7 3 -15 -3 -8 -2 -20 2 -27 5 -7 9 -19 10 -26 5 -31 69 -119
107 -148 45 -33 104 -63 134 -69 10 -2 18 -4 18 -5 0 -11 105 -15 165 -5 30 5
57 9 60 10 41 6 196 116 183 129 -4 3 -1 6 6 6 7 0 9 5 6 10 -3 6 -3 10 2 10
10 0 36 57 41 90 2 13 7 29 11 35 13 19 1 201 -16 227 -4 7 -8 15 -8 18 -4 34
-105 150 -131 150 -8 0 -14 4 -14 8 0 11 -63 39 -105 48 -43 9 -162 13 -170 6z"/>
<path d="M7027 8694 c-141 -33 -246 -116 -302 -238 -19 -39 -36 -92 -40 -116
-8 -61 -13 -183 -7 -194 3 -5 7 -27 8 -48 2 -21 6 -44 10 -50 4 -6 8 -27 10
-46 2 -20 8 -40 14 -46 5 -5 10 -20 10 -31 0 -12 3 -25 8 -29 4 -4 7 -11 8
-14 0 -4 7 -20 14 -37 7 -16 14 -32 15 -35 4 -17 61 -126 68 -128 4 -2 7 -8 7
-14 0 -15 83 -148 92 -148 5 0 8 -6 8 -13 0 -8 9 -22 20 -32 11 -10 20 -22 20
-27 0 -5 10 -20 23 -32 12 -13 33 -38 46 -55 34 -44 120 -139 160 -175 19 -17
50 -46 69 -63 18 -18 35 -33 38 -33 2 0 18 -14 36 -30 67 -61 78 -71 78 -65 0
3 12 -6 27 -20 15 -14 31 -25 35 -25 3 0 13 -6 20 -14 8 -7 27 -21 43 -30 17
-9 46 -26 65 -38 69 -42 224 -117 232 -112 4 3 8 0 8 -5 0 -6 3 -10 8 -9 4 0
14 -1 22 -5 17 -6 90 -30 105 -33 6 -2 21 -6 35 -9 14 -4 39 -8 56 -9 17 -2
35 -5 40 -8 11 -6 157 -2 202 6 54 9 144 45 182 74 58 43 130 127 130 153 0 8
6 21 13 27 6 7 13 17 13 22 1 6 2 11 4 13 2 2 5 17 15 72 9 49 12 205 4 205
-3 0 -6 6 -6 13 -1 46 -23 139 -50 207 -6 15 -7 19 -14 50 -2 8 -8 18 -12 21
-5 3 -10 12 -12 20 -9 39 -18 59 -27 59 -6 0 -8 7 -4 15 3 8 2 15 -3 15 -4 0
-16 20 -27 45 -10 25 -22 45 -26 45 -4 0 -8 7 -8 15 0 8 -5 15 -10 15 -6 0 -9
3 -8 8 2 6 -69 120 -83 132 -3 3 -12 14 -20 26 -42 61 -176 212 -248 278 -25
23 -57 53 -73 69 -15 15 -30 27 -33 27 -5 0 -50 38 -81 68 -8 7 -14 11 -14 8
0 -3 -12 6 -26 19 -15 14 -33 25 -40 25 -8 0 -14 4 -14 9 0 5 -8 12 -17 15
-10 3 -31 17 -47 31 -16 14 -35 25 -43 25 -7 0 -13 5 -13 11 0 5 -4 8 -9 4 -5
-3 -13 0 -16 6 -6 9 -163 88 -190 95 -5 2 -49 17 -98 33 -129 45 -295 60 -400
35z m187 -245 c17 0 35 -3 40 -7 6 -3 24 -7 40 -7 16 -1 32 -7 34 -13 2 -6 9
-9 16 -6 7 3 31 -4 54 -14 l42 -19 -222 -221 -222 -222 -14 32 c-7 18 -15 40
-17 48 -28 111 -33 144 -30 215 4 97 6 105 17 105 5 0 7 3 5 8 -7 10 32 55 63
75 14 9 45 19 69 22 25 3 46 7 49 9 2 3 14 2 25 0 12 -3 35 -5 51 -5z m1181
-1035 c1 -5 6 -19 13 -31 7 -13 10 -23 6 -23 -3 0 -1 -6 5 -13 6 -8 8 -17 5
-20 -3 -3 -2 -12 2 -19 4 -7 9 -19 10 -28 1 -8 5 -25 8 -38 7 -33 8 -122 2
-157 -21 -104 -102 -158 -234 -156 -30 0 -61 3 -70 5 -10 3 -30 7 -45 10 -33
6 -91 23 -129 39 -27 11 -26 12 190 229 196 197 236 231 237 202z"/>
<path d="M3057 7304 c-3 -3 -19 -6 -36 -6 -17 -1 -31 -6 -31 -11 0 -6 -3 -7
-6 -4 -9 9 -107 -46 -147 -83 -19 -17 -43 -48 -53 -70 -10 -22 -23 -40 -28
-40 -4 0 -6 -6 -3 -14 3 -8 3 -17 -1 -20 -11 -12 -15 -40 -16 -121 -2 -138 25
-207 114 -291 31 -30 125 -77 180 -91 24 -6 133 -5 158 1 12 3 31 8 43 11 31
7 99 38 99 46 0 3 14 12 30 19 17 7 30 16 30 20 0 4 9 18 21 31 32 37 66 109
74 159 8 44 9 141 2 170 -12 51 -21 76 -30 88 -5 6 -6 12 -3 12 7 0 -36 62
-59 85 -25 27 -105 74 -150 90 -48 16 -177 29 -188 19z"/>
<path d="M4567 7303 c-3 -2 -17 -6 -33 -9 -47 -8 -132 -56 -172 -96 -54 -53
-93 -133 -95 -195 -1 -13 -3 -23 -6 -23 -4 0 -6 -17 -5 -37 4 -162 60 -270
176 -338 33 -20 69 -37 81 -39 12 -3 22 -5 22 -6 0 -4 64 -11 100 -12 99 -2
211 42 282 110 55 53 94 139 97 215 0 15 4 27 9 27 4 0 3 9 -3 19 -6 12 -6 22
-1 26 6 3 6 16 1 33 -5 15 -11 38 -12 52 -5 42 -56 135 -90 166 -41 37 -98 77
-98 69 0 -3 -10 1 -22 9 -13 8 -36 18 -53 21 -36 8 -173 14 -178 8z"/>
<path d="M3221 6305 c-25 -6 -78 -11 -118 -10 l-74 1 6 -30 c4 -17 8 -40 9
-51 7 -37 58 -222 74 -265 3 -8 6 -17 7 -20 1 -3 5 -14 9 -25 5 -11 24 -63 44
-115 20 -52 39 -96 44 -98 4 -2 8 -9 8 -17 0 -7 16 -48 37 -91 20 -44 37 -85
39 -93 1 -8 7 -17 12 -20 5 -3 26 -40 46 -81 21 -41 43 -78 50 -82 6 -4 7 -8
2 -8 -4 0 3 -15 18 -34 14 -19 26 -39 26 -45 0 -5 6 -16 13 -23 6 -8 17 -23
23 -33 32 -58 39 -70 44 -75 13 -12 90 -131 90 -139 0 -5 7 -12 16 -15 8 -3
12 -10 9 -16 -3 -5 -2 -10 4 -10 5 0 20 -17 32 -37 13 -21 30 -45 39 -54 31
-35 40 -48 40 -58 0 -5 5 -11 10 -13 6 -2 -1 -19 -15 -38 -14 -18 -25 -31 -25
-28 0 3 -22 -17 -50 -45 -27 -28 -50 -54 -50 -58 0 -4 -9 -10 -20 -14 -11 -3
-19 -9 -18 -13 3 -9 -190 -197 -200 -196 -23 4 -52 18 -52 25 0 5 -7 9 -15 9
-8 0 -15 3 -15 8 0 4 -10 12 -23 18 -12 6 -78 43 -147 83 -69 39 -133 71 -142
71 -10 0 -18 5 -18 10 0 6 -7 10 -15 10 -9 0 -26 6 -38 14 -12 8 -60 27 -107
42 -47 16 -88 33 -92 39 -5 6 -8 6 -8 0 -1 -5 -2 -41 -4 -80 -4 -73 -10 -107
-26 -149 -9 -24 -1 -33 36 -41 5 -2 30 -12 54 -24 24 -11 50 -21 57 -21 7 0
13 -5 13 -12 0 -6 2 -9 5 -6 7 7 184 -84 260 -133 17 -10 38 -22 48 -25 9 -4
17 -10 17 -15 0 -5 7 -9 15 -9 12 0 13 -3 3 -19 -7 -11 -14 -19 -18 -18 -3 1
-30 -24 -61 -55 -31 -32 -55 -58 -55 -58 2 0 -240 -241 -349 -349 -25 -24 -45
-47 -45 -52 0 -4 -9 -10 -20 -14 -11 -3 -19 -9 -18 -13 3 -9 -123 -132 -136
-132 -5 0 -7 -2 -4 -5 6 -6 -84 -100 -94 -97 -4 1 -9 -7 -13 -17 -3 -10 -17
-24 -30 -31 -14 -7 -23 -15 -21 -17 1 -2 -62 -68 -143 -148 l-145 -145 -19 33
c-11 17 -28 44 -38 59 -11 15 -19 32 -19 38 0 5 -5 10 -11 10 -5 0 -7 5 -4 10
3 6 1 10 -4 10 -6 0 -11 7 -11 15 0 8 -5 15 -10 15 -6 0 -9 3 -8 8 4 11 -26
72 -34 72 -5 0 -8 4 -8 9 0 5 -10 30 -22 57 -12 27 -23 51 -23 54 -1 3 -7 19
-14 35 -14 33 -72 190 -71 190 1 0 -1 12 -5 26 -3 14 -8 34 -10 45 -2 10 -4
19 -6 19 -1 0 -3 9 -5 20 -2 11 -6 34 -8 50 -3 17 -8 57 -12 90 -3 33 -7 65
-9 72 -2 7 0 15 6 18 5 4 6 13 1 22 -5 8 -5 35 -1 60 5 25 6 49 3 54 -3 5 -1
9 4 9 6 0 8 9 5 20 -3 11 -10 20 -15 20 -14 0 -128 122 -128 138 0 6 -4 12
-10 12 -5 0 -12 11 -16 25 -10 41 -17 35 -54 -47 -5 -13 -11 -32 -13 -43 -1
-11 -5 -24 -9 -30 -26 -44 -29 -424 -2 -466 2 -4 6 -24 10 -45 13 -82 94 -345
115 -370 5 -6 6 -14 2 -17 -3 -4 -1 -7 6 -7 7 0 10 -4 6 -9 -3 -5 -1 -12 5
-16 5 -3 10 -15 10 -25 0 -10 3 -20 8 -22 4 -1 24 -37 44 -78 50 -100 91 -174
101 -178 4 -2 7 -10 7 -18 0 -8 4 -14 10 -14 5 0 9 -3 8 -7 -1 -5 27 -50 62
-102 36 -52 70 -101 75 -109 6 -9 15 -21 20 -27 6 -6 21 -26 35 -45 14 -18 34
-43 45 -55 11 -12 40 -46 65 -76 78 -95 300 -320 365 -371 16 -12 41 -34 55
-48 15 -14 42 -36 60 -50 19 -14 42 -33 52 -42 10 -10 18 -16 18 -13 0 3 10
-4 23 -15 12 -12 54 -42 92 -68 39 -26 72 -50 75 -53 3 -3 21 -14 40 -25 19
-10 37 -22 40 -25 17 -18 271 -150 390 -202 39 -17 117 -46 140 -52 8 -2 35
-10 60 -18 53 -18 112 -32 123 -29 4 1 7 -2 7 -6 0 -5 10 -8 23 -7 12 1 27 -1
32 -5 6 -4 17 -7 25 -7 8 -1 40 -4 70 -8 65 -9 259 -10 315 -1 55 8 62 10 130
31 33 10 63 18 68 17 4 -1 7 3 7 10 0 6 3 9 6 5 17 -17 182 100 250 177 46 54
89 124 80 134 -3 3 -30 6 -61 7 -64 3 -154 23 -174 38 -10 9 -18 6 -32 -12
-11 -13 -19 -21 -19 -18 0 3 -15 -8 -32 -24 -88 -82 -238 -123 -415 -116 -59
3 -108 6 -108 7 0 1 -16 4 -35 7 -75 10 -256 59 -274 75 -6 4 -16 8 -23 8 -26
0 -312 136 -325 155 -5 7 -8 7 -8 0 0 -5 -5 -3 -10 5 -5 8 -14 15 -20 15 -6 0
-14 6 -19 13 -5 8 -12 14 -17 14 -5 0 -23 8 -41 16 -36 17 -51 42 -26 42 9 0
14 2 11 6 -8 7 99 114 113 114 7 0 10 2 7 5 -4 4 229 241 395 401 7 6 18 21
26 32 8 12 18 19 23 16 4 -3 8 2 8 11 0 9 4 14 9 11 5 -4 11 -1 13 4 3 11 228
239 228 232 0 -3 13 11 29 31 15 20 31 34 35 30 3 -3 6 2 6 12 0 10 2 16 5 13
3 -2 56 47 119 110 98 100 116 114 128 101 15 -15 61 -91 93 -151 17 -33 45
-52 45 -30 0 4 19 16 43 26 66 29 147 56 147 48 0 -3 5 -1 11 5 11 11 3 27
-93 195 -9 16 -23 37 -31 46 -44 51 -43 61 16 118 30 29 52 56 49 59 -3 3 2 5
12 5 9 0 15 4 12 8 -3 5 4 15 16 23 11 8 41 36 67 63 25 27 52 55 59 62 7 8
18 14 23 14 5 0 9 5 9 10 0 11 79 90 89 90 5 0 42 -28 81 -62 9 -7 32 -24 53
-38 20 -14 37 -28 37 -32 0 -5 5 -8 11 -8 12 0 103 -60 107 -72 2 -4 10 -8 18
-8 8 0 14 -5 14 -11 0 -5 4 -8 9 -4 6 3 14 -3 20 -12 6 -10 11 -14 11 -10 0 4
6 3 13 -3 19 -16 88 -61 132 -85 22 -13 65 -37 95 -54 30 -17 72 -39 93 -47
20 -9 37 -20 37 -25 0 -5 5 -9 12 -9 6 0 54 -21 106 -46 98 -47 139 -65 157
-69 6 -2 30 -12 55 -23 45 -20 83 -34 109 -38 8 -2 17 -6 20 -11 3 -4 13 -9
21 -9 30 -3 55 -9 60 -16 3 -4 17 -9 30 -12 72 -14 91 -19 96 -27 2 -4 11 -6
19 -2 8 3 15 1 15 -3 0 -5 10 -10 23 -10 12 -1 34 -4 50 -8 15 -3 37 -8 50
-10 12 -2 38 -7 57 -11 19 -3 51 -8 70 -10 19 -2 35 -4 35 -5 0 -9 351 -14
410 -6 42 6 122 22 160 32 6 2 19 5 30 7 45 11 150 51 156 59 3 5 9 9 13 8 12
-2 101 45 109 58 5 7 12 10 16 8 5 -3 18 6 31 19 13 13 27 22 31 19 5 -3 9 -1
9 4 0 5 17 21 37 35 21 15 34 27 29 27 -4 0 11 16 34 35 23 19 38 35 33 35 -4
0 0 5 10 11 9 6 15 14 12 20 -4 5 0 9 8 9 8 0 20 14 27 30 7 17 16 30 20 30 8
0 18 27 16 45 -1 6 -4 9 -8 8 -5 -2 -8 2 -8 8 0 5 -4 7 -10 4 -12 -7 -122 19
-167 41 -25 11 -38 12 -53 4 -11 -6 -20 -14 -20 -19 0 -16 -98 -106 -160 -146
-90 -58 -191 -102 -255 -111 -16 -3 -37 -8 -45 -11 -22 -8 -85 -14 -162 -16
-38 -1 -68 -5 -68 -9 0 -6 -51 -1 -58 7 -2 2 -15 0 -28 -5 -13 -5 -24 -6 -24
-2 0 4 -21 8 -48 10 -68 5 -117 10 -117 12 0 2 -10 4 -130 26 -38 6 -190 49
-195 54 -5 5 -16 8 -53 15 -10 2 -32 11 -49 20 -17 8 -37 15 -45 15 -7 0 -21
4 -31 9 -16 9 -52 22 -62 23 -3 0 -14 5 -25 11 -11 6 -22 12 -25 12 -3 1 -27
12 -55 25 -27 13 -53 23 -57 22 -5 -1 -8 3 -8 8 0 5 -4 9 -8 7 -7 -2 -101 42
-112 53 -3 3 -21 13 -40 22 -44 21 -133 71 -140 78 -3 3 -18 12 -35 20 -16 8
-39 23 -49 33 -11 9 -24 17 -29 17 -6 0 -26 12 -46 27 -20 16 -39 28 -43 28
-3 0 -18 10 -32 23 -15 12 -31 22 -36 22 -6 0 -10 5 -10 10 0 6 -7 10 -15 10
-8 0 -15 5 -15 10 0 6 -6 10 -14 10 -8 0 -16 3 -18 8 -1 4 -30 27 -63 52 -33
25 -62 47 -65 50 -3 3 -31 25 -62 49 -32 24 -58 47 -58 52 0 5 -5 9 -12 9 -6
0 -18 7 -27 15 -9 8 -38 34 -66 58 -131 112 -312 290 -445 437 -47 52 -95 105
-107 117 -13 13 -23 27 -23 31 0 4 -19 28 -43 54 -23 26 -53 61 -67 79 -14 18
-31 38 -37 45 -7 7 -13 16 -13 21 0 4 -16 26 -35 48 -19 22 -35 43 -35 47 0 4
-6 13 -13 20 -13 12 -84 119 -161 241 -20 31 -36 62 -36 67 0 6 -3 10 -8 10
-4 0 -13 15 -21 33 -8 17 -17 34 -21 37 -15 11 -160 312 -155 321 4 5 2 9 -2
9 -5 0 -28 51 -52 113 -59 152 -57 146 -71 197 -7 25 -19 64 -26 88 -8 23 -17
60 -20 82 -8 51 -20 58 -73 45z"/>
<path d="M2015 5011 c-11 -5 -25 -6 -31 -4 -7 2 -15 -1 -19 -6 -3 -6 -11 -9
-16 -6 -5 4 -9 2 -9 -2 0 -5 -16 -15 -35 -22 -19 -7 -35 -17 -35 -22 0 -5 -6
-9 -13 -9 -12 0 -61 -47 -67 -65 -2 -5 -10 -16 -17 -23 -7 -7 -13 -20 -13 -28
0 -8 -4 -14 -9 -14 -5 0 -13 -15 -17 -32 -4 -18 -9 -36 -10 -40 -1 -5 -2 -9
-4 -10 -5 -7 -8 -144 -2 -152 5 -9 12 -42 14 -73 1 -7 6 -13 11 -13 6 0 7 -3
4 -6 -23 -23 98 -152 176 -187 57 -27 194 -51 210 -37 1 1 13 3 27 5 62 8 110
24 110 36 0 5 8 9 19 9 10 0 24 7 31 15 7 8 19 15 27 15 8 0 11 5 8 10 -3 6
-2 10 4 10 25 0 101 124 108 175 7 44 10 171 5 180 -3 5 -7 19 -8 32 -4 34
-44 109 -78 148 -36 40 -145 107 -163 101 -6 -3 -13 0 -15 6 -4 12 -165 20
-193 9z"/>
<path d="M7607 4503 c-3 -2 -17 -6 -32 -9 -30 -5 -87 -32 -95 -45 -3 -4 -11
-9 -19 -11 -51 -12 -125 -128 -147 -229 -7 -31 -6 -158 2 -170 3 -5 7 -17 9
-27 7 -39 48 -112 80 -144 45 -43 53 -49 100 -73 22 -11 42 -22 45 -25 18 -18
280 -17 280 1 0 4 12 11 28 17 15 5 32 11 37 13 52 19 147 143 160 209 2 8 4
15 6 15 3 0 8 48 10 105 1 30 -5 75 -12 100 -7 25 -13 47 -14 50 -5 24 -43 85
-70 113 -31 32 -113 86 -139 92 -6 1 -19 5 -28 9 -9 4 -22 5 -28 1 -5 -3 -10
-2 -10 4 0 9 -154 14 -163 4z"/>
<path d="M4588 2855 c-3 -3 -18 -7 -35 -9 -37 -4 -123 -38 -123 -48 0 -5 -6
-8 -12 -8 -28 -1 -107 -93 -133 -155 -29 -70 -37 -178 -17 -250 7 -27 14 -54
16 -60 23 -94 172 -212 274 -218 12 0 22 -3 22 -6 0 -7 90 -5 130 2 68 12 144
45 162 72 4 5 8 7 8 3 0 -13 58 49 83 90 39 61 57 136 53 222 -6 121 -30 182
-98 252 -38 40 -148 108 -148 93 0 -3 -9 -1 -21 5 -20 11 -152 23 -161 15z"/>
</g>
</svg>
